<?xml version="1.0" encoding="iso-8859-1"?>
<!-- Generator: Adobe Illustrator 19.0.0, SVG Export Plug-In . SVG Version: 6.00 Build 0)  -->
<svg version="1.1" id="Layer_1" xmlns="http://www.w3.org/2000/svg" xmlns:xlink="http://www.w3.org/1999/xlink" x="0px" y="0px"
	 viewBox="0 0 511.999 511.999" style="enable-background:new 0 0 511.999 511.999;" xml:space="preserve">
	 <style type="text/css" media="screen"> <![CDATA[ g {fill: #D22020;}]]> </style> 
<g>
	<g>
		<path d="M483.112,385.722l28.599-145.493c1.618-8.232-3.743-16.216-11.974-17.835c-8.24-1.616-16.216,3.745-17.835,11.975
			l-26.19,133.233h-38.625c5.53-1.269,10.653-4.049,14.751-8.106c5.81-5.752,9.089-13.58,9.111-21.756l0.285-104.227
			c0.047-17.089-13.871-30.936-30.951-30.814l-28.268,0.202c-17.072,0.122-30.775,14.151-30.507,31.214l0.371,23.528l26.981-30.01
			l-27.761,49.758h-63.112c-10.136,0-18.351,8.216-18.351,18.352c0,10.136,8.216,18.352,18.351,18.352h73.887
			c6.653,0,12.784-3.601,16.025-9.411l28.542-51.158c-4.183,19.682-10.184,38.734-17.111,56.674
			c-3.008,7.79-9.836,13.782-19.238,15.271l-67.771-0.198c-7.217-0.053-14.094,3.506-18.258,9.615
			c-4.115,6.035-4.971,13.717-2.282,20.509l49.988,126.325c4.478,11.317,17.277,16.847,28.579,12.374
			c11.309-4.475,16.849-17.271,12.374-28.579l-6.365-16.086l19.841-51.446h57.687l35.128,91.086
			c2.016,5.227,7.885,7.814,13.092,5.805c5.219-2.013,7.817-7.875,5.805-13.092l-32.317-83.8h2.615
			C475.468,397.982,481.713,392.845,483.112,385.722z M355.363,421.646l-20.671-52.239l19.89,0.058
			c-4.705,2.581-7.897,7.58-7.897,13.325c0,8.389,6.801,15.19,15.19,15.19h2.615L355.363,421.646z"/>
	</g>
</g>
<g>
	<g>
		<circle cx="372.26" cy="148.34" r="40.502"/>
	</g>
</g>
<g>
	<g>
		<path d="M150.127,314.091h73.887c10.136,0,18.351-8.216,18.351-18.352s-8.216-18.349-18.351-18.349h-63.111l-27.763-49.757
			l26.98,30.009l0.371-23.528c0.269-17.071-13.442-31.092-30.507-31.214l-28.268-0.202c-17.089-0.122-30.998,13.735-30.951,30.814
			l0.285,104.227c0.023,8.176,3.302,16.004,9.112,21.756c4.099,4.057,9.221,6.837,14.751,8.106H56.288l-26.19-133.233
			c-1.617-8.233-9.604-13.592-17.835-11.975c-8.232,1.618-13.594,9.603-11.974,17.835l28.6,145.493
			c1.399,7.123,7.645,12.261,14.905,12.261h2.614L14.09,481.779c-2.012,5.219,0.587,11.08,5.806,13.092
			c5.21,2.01,11.078-0.581,13.091-5.804l35.128-91.086h57.687l19.842,51.445l-6.365,16.086
			c-4.475,11.309,1.064,24.104,12.374,28.579c11.303,4.474,24.102-1.061,28.579-12.374l49.988-126.325
			c2.688-6.791,1.833-14.473-2.282-20.509c-4.083-5.988-10.912-9.615-18.193-9.615c-0.021,0-0.043,0-0.065,0
			c-72.037,0.21-67.491,0.239-68.215,0.124c-8.818-1.401-15.775-7.436-18.796-15.197l-17.111-56.674l28.544,51.159
			C137.342,310.491,143.474,314.091,150.127,314.091z M150.127,397.982L150.127,397.982c8.389,0,15.19-6.801,15.19-15.191
			c0-5.746-3.192-10.745-7.897-13.325l19.89-0.058l-20.672,52.24l-9.128-23.666H150.127z"/>
	</g>
</g>
<g>
	<g>
		<circle cx="139.745" cy="148.34" r="40.502"/>
	</g>
</g>
<g>
	<g>
		<path d="M246.224,16.353c-40.061,0-72.537,23.385-72.537,52.233c0,15.512,9.399,29.437,24.309,39.004l-10.055,20.08
			c-1.026,2.049-0.589,4.528,1.074,6.102c1.663,1.574,4.163,1.876,6.152,0.739l28.505-16.279c7.1,1.671,14.675,2.587,22.55,2.587
			c40.063,0,72.538-23.386,72.538-52.233C318.761,39.738,286.286,16.353,246.224,16.353z"/>
	</g>
</g>
<g>
</g>
<g>
</g>
<g>
</g>
<g>
</g>
<g>
</g>
<g>
</g>
<g>
</g>
<g>
</g>
<g>
</g>
<g>
</g>
<g>
</g>
<g>
</g>
<g>
</g>
<g>
</g>
<g>
</g>
</svg>
