<?xml version="1.0" encoding="iso-8859-1"?>
<!-- Generator: Adobe Illustrator 18.0.0, SVG Export Plug-In . SVG Version: 6.00 Build 0)  -->
<!DOCTYPE svg PUBLIC "-//W3C//DTD SVG 1.1//EN" "http://www.w3.org/Graphics/SVG/1.1/DTD/svg11.dtd">
<svg version="1.1" id="Capa_1" xmlns="http://www.w3.org/2000/svg" xmlns:xlink="http://www.w3.org/1999/xlink" x="0px" y="0px"
	 viewBox="0 0 58 58" style="enable-background:new 0 0 58 58;" xml:space="preserve">
	 <style type="text/css" media="screen"> <![CDATA[ g {fill: #D22020;}]]> </style> 
<g>
	<path d="M51.5,39V13.978c0-0.766-0.092-1.333-0.55-1.792L39.313,0.55C38.964,0.201,38.48,0,37.985,0H8.963
		C7.777,0,6.5,0.916,6.5,2.926V39H51.5z M16.5,27c1.54,0,2.864,0.884,3.532,2.163c2.404-1.185,4.053-3.501,4.389-6.163H21.5v2h-6v-6
		h6v2h3.142c0.447-1.72,1.999-3,3.858-3c0.95,0,1.811,0.346,2.498,0.901c1-3.057,3.431-5.471,6.502-6.44V12V3.391
		c0-0.458,0.553-0.687,0.877-0.363l10.095,10.095C48.796,13.447,48.567,14,48.109,14h-2.751c-0.447,1.72-1.999,3-3.858,3
		c-1.682,0-3.117-1.045-3.708-2.518c-2.778,1.004-4.843,3.499-5.222,6.518H35.5v-2h6v6h-6v-2h-3.142c-0.447,1.72-1.999,3-3.858,3
		c-0.948,0-1.808-0.345-2.494-0.898c-0.877,2.686-2.868,4.922-5.524,6.073C20.388,33.298,18.646,35,16.5,35c-2.206,0-4-1.794-4-4
		S14.294,27,16.5,27z"/>
	<polygon points="23.897,50.801 26.905,50.801 25.415,46.453 	"/>
	<path d="M6.5,41v15c0,1.009,1.22,2,2.463,2h40.074c1.243,0,2.463-0.991,2.463-2V41H6.5z M28.026,54l-0.725-2.092h-3.787L22.776,54
		h-1.709l3.527-10.063h1.627L29.722,54H28.026z M33.536,54h-1.668V43.924h1.668V54z"/>
</g>
<g>
</g>
<g>
</g>
<g>
</g>
<g>
</g>
<g>
</g>
<g>
</g>
<g>
</g>
<g>
</g>
<g>
</g>
<g>
</g>
<g>
</g>
<g>
</g>
<g>
</g>
<g>
</g>
<g>
</g>
</svg>
