<?xml version="1.0" encoding="iso-8859-1"?>
<!-- Generator: Adobe Illustrator 18.0.0, SVG Export Plug-In . SVG Version: 6.00 Build 0)  -->
<!DOCTYPE svg PUBLIC "-//W3C//DTD SVG 1.1//EN" "http://www.w3.org/Graphics/SVG/1.1/DTD/svg11.dtd">
<svg version="1.1" id="Capa_1" xmlns="http://www.w3.org/2000/svg" xmlns:xlink="http://www.w3.org/1999/xlink" x="0px" y="0px"
	 viewBox="0 0 58 58" style="enable-background:new 0 0 58 58;" xml:space="preserve">
	 <style type="text/css" media="screen"> <![CDATA[ g {fill: #D22020;}]]> </style> 
<g>
	<path d="M29.5,34c7.168,0,13-5.832,13-13c0-2.498-0.708-4.907-2.052-7H38.5h-1v-1v-2.24C35.221,8.977,32.398,8,29.5,8
		c-7.168,0-13,5.832-13,13S22.332,34,29.5,34z M24.5,14c0-0.365,0.199-0.701,0.519-0.877c0.321-0.175,0.71-0.162,1.019,0.033l11,7
		C37.325,20.34,37.5,20.658,37.5,21s-0.175,0.66-0.463,0.844l-11,7C25.874,28.947,25.687,29,25.5,29
		c-0.166,0-0.331-0.041-0.481-0.123C24.699,28.701,24.5,28.365,24.5,28V14z"/>
	<path d="M32.048,45.858c-0.142-0.196-0.34-0.36-0.595-0.492c-0.255-0.132-0.593-0.198-1.012-0.198h-1.23v3.992h1.504
		c0.2,0,0.398-0.034,0.595-0.103c0.196-0.068,0.376-0.18,0.54-0.335s0.296-0.371,0.396-0.649c0.1-0.278,0.15-0.622,0.15-1.032
		c0-0.164-0.023-0.354-0.068-0.567C32.282,46.26,32.189,46.055,32.048,45.858z"/>
	<path d="M51.5,39V13.978c0-0.766-0.092-1.333-0.55-1.792L39.313,0.55C38.964,0.201,38.48,0,37.985,0H8.963
		C7.777,0,6.5,0.916,6.5,2.926V39H51.5z M29.5,6c2.842,0,5.615,0.826,8,2.333V3.391c0-0.458,0.553-0.687,0.877-0.363l10.095,10.095
		C48.796,13.447,48.567,14,48.109,14h-5.357c1.142,2.151,1.749,4.535,1.749,7c0,8.271-6.729,15-15,15s-15-6.729-15-15
		S21.229,6,29.5,6z"/>
	<polygon points="39.479,50.35 39.479,45.838 36.58,50.35 	"/>
	<path d="M6.5,41v15c0,1.009,1.22,2,2.463,2h40.074c1.243,0,2.463-0.991,2.463-2V41H6.5z M25.068,54H23.4v-6.932l-2.256,5.605
		h-1.449l-2.27-5.605V54h-1.668V43.924h1.668l2.994,6.891l2.98-6.891h1.668V54z M33.723,48.429
		c-0.173,0.415-0.415,0.764-0.725,1.046c-0.31,0.282-0.684,0.501-1.121,0.656s-0.921,0.232-1.449,0.232h-1.217V54H27.57V43.924
		h2.898c0.428,0,0.852,0.068,1.271,0.205c0.419,0.137,0.795,0.342,1.128,0.615c0.333,0.273,0.602,0.604,0.807,0.991
		s0.308,0.822,0.308,1.306C33.982,47.552,33.896,48.014,33.723,48.429z M42.199,51.648h-1.053V54h-1.668v-2.352h-4.361V50.35
		l4.361-6.426h1.668v6.426h1.053V51.648z"/>
</g>
<g>
</g>
<g>
</g>
<g>
</g>
<g>
</g>
<g>
</g>
<g>
</g>
<g>
</g>
<g>
</g>
<g>
</g>
<g>
</g>
<g>
</g>
<g>
</g>
<g>
</g>
<g>
</g>
<g>
</g>
</svg>
