<?xml version="1.0" encoding="iso-8859-1"?>
<!-- Generator: Adobe Illustrator 18.0.0, SVG Export Plug-In . SVG Version: 6.00 Build 0)  -->
<!DOCTYPE svg PUBLIC "-//W3C//DTD SVG 1.1//EN" "http://www.w3.org/Graphics/SVG/1.1/DTD/svg11.dtd">
<svg version="1.1" id="Capa_1" xmlns="http://www.w3.org/2000/svg" xmlns:xlink="http://www.w3.org/1999/xlink" x="0px" y="0px"
	 viewBox="0 0 58 58" style="enable-background:new 0 0 58 58;" xml:space="preserve">
	 <style type="text/css" media="screen"> <![CDATA[ g {fill: #D22020;}]]> </style> 
<g>
	<path d="M32.048,45.858c-0.142-0.196-0.34-0.36-0.595-0.492s-0.593-0.198-1.012-0.198h-1.23v3.992h1.504
		c0.2,0,0.398-0.034,0.595-0.103s0.376-0.18,0.54-0.335s0.296-0.371,0.396-0.649s0.15-0.622,0.15-1.032
		c0-0.164-0.022-0.354-0.068-0.567S32.189,46.055,32.048,45.858z"/>
	<path d="M51.5,39V13.978c0-0.766-0.092-1.333-0.55-1.792L39.313,0.55C38.964,0.201,38.48,0,37.985,0H8.963
		C7.777,0,6.5,0.916,6.5,2.926V39H51.5z M37.5,3.391c0-0.458,0.553-0.687,0.877-0.363l10.095,10.095
		C48.796,13.447,48.567,14,48.109,14H37.5V3.391z M23.794,26.177H27.5v-9.053V8.765v-1c0-0.553,0.447-1,1-1s1,0.447,1,1v0.898
		c0.105,0.461,0.948,3.606,4.862,6.738c1.008,0.808,1.74,1.555,2.308,2.351c1.365,1.914,3.414,5.929,1.787,11.304
		c-0.131,0.432-0.527,0.71-0.957,0.71c-0.096,0-0.193-0.014-0.29-0.043c-0.432-0.131-0.71-0.527-0.71-0.957
		c0-0.096,0.014-0.193,0.043-0.29c0.977-3.226-2.905-6.084-5.224-7.793c-0.66-0.485-1.182-0.869-1.521-1.205L29.5,19.233v11.473
		c0,3.471-2.823,6.294-6.294,6.294c-3.466,0-5.706-2.24-5.706-5.706C17.5,28.138,19.912,26.177,23.794,26.177z"/>
	<path d="M6.5,41v15c0,1.009,1.22,2,2.463,2h40.074c1.243,0,2.463-0.991,2.463-2V41H6.5z M25.068,54H23.4v-6.932l-2.256,5.605
		h-1.449l-2.27-5.605V54h-1.668V43.924h1.668l2.994,6.891l2.98-6.891h1.668V54z M33.723,48.429
		c-0.173,0.415-0.415,0.764-0.725,1.046s-0.684,0.501-1.121,0.656s-0.921,0.232-1.449,0.232h-1.217V54H27.57V43.924h2.898
		c0.429,0,0.853,0.068,1.271,0.205s0.795,0.342,1.128,0.615s0.602,0.604,0.807,0.991s0.308,0.822,0.308,1.306
		C33.982,47.552,33.896,48.014,33.723,48.429z M41.358,52.271c-0.132,0.333-0.299,0.608-0.499,0.827s-0.426,0.395-0.677,0.526
		s-0.494,0.23-0.731,0.294s-0.453,0.104-0.649,0.123s-0.349,0.027-0.458,0.027c-0.766,0-1.369-0.053-1.812-0.157
		s-0.75-0.212-0.923-0.321l0.369-1.176c0.082,0.046,0.159,0.096,0.232,0.15s0.178,0.107,0.314,0.157s0.328,0.091,0.574,0.123
		s0.583,0.048,1.012,0.048c0.629,0,1.099-0.171,1.408-0.513s0.465-0.772,0.465-1.292c0-0.492-0.142-0.907-0.424-1.244
		s-0.697-0.506-1.244-0.506h-1.381l-0.014-1.107h0.93c0.2,0,0.403-0.005,0.608-0.014s0.398-0.06,0.581-0.15s0.333-0.246,0.451-0.465
		s0.178-0.533,0.178-0.943c0-0.164-0.014-0.337-0.041-0.52s-0.103-0.351-0.226-0.506s-0.303-0.28-0.54-0.376
		s-0.565-0.144-0.984-0.144s-0.754,0.039-1.005,0.116s-0.439,0.139-0.567,0.185l-0.479-1.23c0.219-0.063,0.49-0.132,0.813-0.205
		s0.791-0.109,1.401-0.109c0.429,0,0.834,0.053,1.217,0.157s0.718,0.271,1.005,0.499s0.515,0.52,0.684,0.875
		s0.253,0.774,0.253,1.258c0,0.282-0.05,0.54-0.15,0.772s-0.228,0.436-0.383,0.608s-0.328,0.316-0.52,0.431
		s-0.369,0.189-0.533,0.226c0.21,0.027,0.426,0.096,0.649,0.205s0.431,0.265,0.622,0.465s0.351,0.444,0.479,0.731
		s0.191,0.617,0.191,0.991C41.557,51.544,41.49,51.938,41.358,52.271z"/>
</g>
<g>
</g>
<g>
</g>
<g>
</g>
<g>
</g>
<g>
</g>
<g>
</g>
<g>
</g>
<g>
</g>
<g>
</g>
<g>
</g>
<g>
</g>
<g>
</g>
<g>
</g>
<g>
</g>
<g>
</g>
</svg>
