<?xml version="1.0" encoding="iso-8859-1"?>
<!-- Generator: Adobe Illustrator 18.0.0, SVG Export Plug-In . SVG Version: 6.00 Build 0)  -->
<!DOCTYPE svg PUBLIC "-//W3C//DTD SVG 1.1//EN" "http://www.w3.org/Graphics/SVG/1.1/DTD/svg11.dtd">
<svg version="1.1" id="Capa_1" xmlns="http://www.w3.org/2000/svg" xmlns:xlink="http://www.w3.org/1999/xlink" x="0px" y="0px"
	 viewBox="0 0 58 58" style="enable-background:new 0 0 58 58;" xml:space="preserve">
	 <style type="text/css" media="screen"> <![CDATA[ g {fill: #D22020;}]]> </style> 
<g>
	<path d="M51.5,39V13.978c0-0.766-0.092-1.333-0.55-1.792L39.313,0.55C38.964,0.201,38.48,0,37.985,0H8.963
		C7.777,0,6.5,0.916,6.5,2.926V39H51.5z M25.5,34h-8c-0.553,0-1-0.448-1-1s0.447-1,1-1h8c0.553,0,1,0.448,1,1S26.053,34,25.5,34z
		 M31.5,29h-10c-0.553,0-1-0.448-1-1s0.447-1,1-1h10c0.553,0,1,0.448,1,1S32.053,29,31.5,29z M44.5,29h-9c-0.553,0-1-0.448-1-1
		s0.447-1,1-1h9c0.553,0,1,0.448,1,1S45.053,29,44.5,29z M44.5,24h-6c-0.553,0-1-0.448-1-1s0.447-1,1-1h6c0.553,0,1,0.448,1,1
		S45.053,24,44.5,24z M44.5,19h-2c-0.553,0-1-0.448-1-1s0.447-1,1-1h2c0.553,0,1,0.448,1,1S45.053,19,44.5,19z M37.5,3.391
		c0-0.458,0.553-0.687,0.877-0.363l10.095,10.095C48.796,13.447,48.567,14,48.109,14H37.5V3.391z M30.5,17h8c0.553,0,1,0.448,1,1
		s-0.447,1-1,1h-8c-0.553,0-1-0.448-1-1S29.947,17,30.5,17z M25.8,17.29c0.36-0.37,1.04-0.37,1.41,0c0.18,0.19,0.29,0.45,0.29,0.71
		c0,0.26-0.11,0.52-0.29,0.71C27.02,18.89,26.76,19,26.5,19s-0.521-0.11-0.71-0.29c-0.181-0.19-0.29-0.44-0.29-0.71
		S25.609,17.48,25.8,17.29z M13.5,12h6c0.553,0,1,0.448,1,1s-0.447,1-1,1h-6c-0.553,0-1-0.448-1-1S12.947,12,13.5,12z M13.5,17h9
		c0.553,0,1,0.448,1,1s-0.447,1-1,1h-9c-0.553,0-1-0.448-1-1S12.947,17,13.5,17z M13.5,22h22c0.553,0,1,0.448,1,1s-0.447,1-1,1h-22
		c-0.553,0-1-0.448-1-1S12.947,22,13.5,22z M13.5,27h4c0.553,0,1,0.448,1,1s-0.447,1-1,1h-4c-0.553,0-1-0.448-1-1S12.947,27,13.5,27
		z M12.79,32.29c0.37-0.37,1.05-0.37,1.42,0.01c0.18,0.18,0.29,0.44,0.29,0.7c0,0.26-0.11,0.52-0.29,0.71
		C14.02,33.89,13.76,34,13.5,34s-0.521-0.11-0.71-0.29c-0.181-0.19-0.29-0.45-0.29-0.71C12.5,32.74,12.609,32.48,12.79,32.29z"/>
	<path d="M6.5,41v15c0,1.009,1.22,2,2.463,2h40.074c1.243,0,2.463-0.991,2.463-2V41H6.5z M22.867,45.045h-3.008V54h-1.654v-8.955
		h-3.008v-1.121h7.67V45.045z M32,54h-1.9l-1.6-3.801h-0.137L26.641,54h-1.9l2.557-4.895l-2.721-5.182h1.873l1.777,4.102h0.137
		l1.928-4.102h1.873l-2.721,5.182L32,54z M41.529,45.045h-3.008V54h-1.654v-8.955h-3.008v-1.121h7.67V45.045z"/>
</g>
<g>
</g>
<g>
</g>
<g>
</g>
<g>
</g>
<g>
</g>
<g>
</g>
<g>
</g>
<g>
</g>
<g>
</g>
<g>
</g>
<g>
</g>
<g>
</g>
<g>
</g>
<g>
</g>
<g>
</g>
</svg>
