<?xml version="1.0" encoding="iso-8859-1"?>
<!-- Generator: Adobe Illustrator 18.0.0, SVG Export Plug-In . SVG Version: 6.00 Build 0)  -->
<!DOCTYPE svg PUBLIC "-//W3C//DTD SVG 1.1//EN" "http://www.w3.org/Graphics/SVG/1.1/DTD/svg11.dtd">
<svg version="1.1" id="Capa_1" xmlns="http://www.w3.org/2000/svg" xmlns:xlink="http://www.w3.org/1999/xlink" x="0px" y="0px"
	 viewBox="0 0 58 58" style="enable-background:new 0 0 58 58;" xml:space="preserve">
	 <style type="text/css" media="screen"> <![CDATA[ g {fill: #D22020;}]]> </style> 
<g>
	<rect x="14.5" y="15" width="8" height="2"/>
	<rect x="14.5" y="19" width="8" height="2"/>
	<rect x="24.5" y="19" width="19" height="2"/>
	<rect x="24.5" y="31" width="19" height="2"/>
	<rect x="24.5" y="23" width="19" height="2"/>
	<rect x="14.5" y="23" width="8" height="2"/>
	<rect x="24.5" y="27" width="19" height="2"/>
	<path d="M6.5,41v15c0,1.009,1.22,2,2.463,2h40.074c1.243,0,2.463-0.991,2.463-2V41H6.5z M23.936,54h-1.9l-1.6-3.801h-0.137
		L18.576,54h-1.9l2.557-4.895l-2.721-5.182h1.873l1.777,4.102h0.137l1.928-4.102H24.1l-2.721,5.182L23.936,54z M32.672,54h-6.303
		V43.924h1.668v8.832h4.635V54z M39.815,52.298c-0.15,0.342-0.362,0.643-0.636,0.902s-0.611,0.467-1.012,0.622
		c-0.401,0.155-0.857,0.232-1.367,0.232c-0.219,0-0.444-0.012-0.677-0.034s-0.467-0.062-0.704-0.116
		c-0.237-0.055-0.463-0.13-0.677-0.226c-0.214-0.096-0.399-0.212-0.554-0.349l0.287-1.176c0.127,0.073,0.289,0.144,0.485,0.212
		c0.196,0.068,0.398,0.132,0.608,0.191c0.209,0.06,0.419,0.107,0.629,0.144c0.209,0.036,0.405,0.055,0.588,0.055
		c0.556,0,0.982-0.13,1.278-0.39c0.296-0.26,0.444-0.645,0.444-1.155c0-0.31-0.105-0.574-0.314-0.793
		c-0.21-0.219-0.472-0.417-0.786-0.595s-0.654-0.355-1.019-0.533c-0.365-0.178-0.707-0.388-1.025-0.629
		c-0.319-0.241-0.583-0.526-0.793-0.854c-0.21-0.328-0.314-0.738-0.314-1.23c0-0.446,0.082-0.843,0.246-1.189
		s0.385-0.641,0.663-0.882c0.278-0.241,0.602-0.426,0.971-0.554s0.759-0.191,1.169-0.191c0.419,0,0.843,0.039,1.271,0.116
		c0.428,0.077,0.774,0.203,1.039,0.376c-0.055,0.118-0.119,0.248-0.191,0.39c-0.073,0.142-0.142,0.273-0.205,0.396
		c-0.064,0.123-0.119,0.226-0.164,0.308c-0.046,0.082-0.073,0.128-0.082,0.137c-0.055-0.027-0.116-0.063-0.185-0.109
		s-0.167-0.091-0.294-0.137c-0.128-0.046-0.296-0.077-0.506-0.096c-0.21-0.019-0.479-0.014-0.807,0.014
		c-0.183,0.019-0.355,0.07-0.52,0.157s-0.31,0.193-0.438,0.321c-0.128,0.128-0.228,0.271-0.301,0.431
		c-0.073,0.159-0.109,0.313-0.109,0.458c0,0.364,0.104,0.658,0.314,0.882c0.209,0.224,0.469,0.419,0.779,0.588
		c0.31,0.169,0.647,0.333,1.012,0.492c0.364,0.159,0.704,0.354,1.019,0.581s0.576,0.513,0.786,0.854
		c0.209,0.342,0.314,0.781,0.314,1.319C40.041,51.603,39.966,51.956,39.815,52.298z"/>
	<path d="M51.5,39V13.978c0-0.766-0.092-1.333-0.55-1.792L39.313,0.55C38.964,0.201,38.48,0,37.985,0H8.963
		C7.777,0,6.5,0.916,6.5,2.926V39H51.5z M37.5,3.391c0-0.458,0.553-0.687,0.877-0.363l10.095,10.095
		C48.796,13.447,48.567,14,48.109,14H37.5V3.391z M12.5,31v-2v-2v-2v-2v-2v-2v-2v-4h12v4h21v4v2v2v2v2v2v4h-21h-2h-10V31z"/>
	<rect x="14.5" y="27" width="8" height="2"/>
	<rect x="14.5" y="31" width="8" height="2"/>
</g>
<g>
</g>
<g>
</g>
<g>
</g>
<g>
</g>
<g>
</g>
<g>
</g>
<g>
</g>
<g>
</g>
<g>
</g>
<g>
</g>
<g>
</g>
<g>
</g>
<g>
</g>
<g>
</g>
<g>
</g>
</svg>
