<?xml version="1.0" encoding="iso-8859-1"?>
<!-- Generator: Adobe Illustrator 18.0.0, SVG Export Plug-In . SVG Version: 6.00 Build 0)  -->
<!DOCTYPE svg PUBLIC "-//W3C//DTD SVG 1.1//EN" "http://www.w3.org/Graphics/SVG/1.1/DTD/svg11.dtd">
<svg version="1.1" id="Capa_1" xmlns="http://www.w3.org/2000/svg" xmlns:xlink="http://www.w3.org/1999/xlink" x="0px" y="0px"
	 viewBox="0 0 58 58" style="enable-background:new 0 0 58 58;" xml:space="preserve">
	 <style type="text/css" media="screen"> <![CDATA[ g {fill: #D22020;}]]> </style> 
<g>
	<path d="M28.5,33c1.654,0,3-1.346,3-3v-3h-6v3C25.5,31.654,26.846,33,28.5,33z M27.5,29h2c0.552,0,1,0.447,1,1s-0.448,1-1,1h-2
		c-0.552,0-1-0.447-1-1S26.948,29,27.5,29z"/>
	<path d="M51.5,39V13.978c0-0.766-0.092-1.333-0.55-1.792L39.313,0.55C38.964,0.201,38.48,0,37.985,0H8.963
		C7.777,0,6.5,0.916,6.5,2.926V39H51.5z M37.5,3.391c0-0.458,0.553-0.687,0.877-0.363l10.095,10.095
		C48.796,13.447,48.567,14,48.109,14H37.5V3.391z M23.5,25h4v-2h-2v-2h2v-2h-2v-2h2v-2h-2v-2h2v-2h-2V9h2V7h2v2h2v2h-2v2h2v2h-2v2h2
		v2h-2v2h2v2h-2v2h4v5c0,2.757-2.243,5-5,5s-5-2.243-5-5V25z"/>
	<path d="M37.251,45.858c-0.142-0.196-0.34-0.36-0.595-0.492c-0.255-0.132-0.593-0.198-1.012-0.198h-1.23v3.992h1.504
		c0.2,0,0.398-0.034,0.595-0.103c0.196-0.068,0.376-0.18,0.54-0.335s0.296-0.371,0.396-0.649c0.1-0.278,0.15-0.622,0.15-1.032
		c0-0.164-0.023-0.354-0.068-0.567C37.485,46.26,37.392,46.055,37.251,45.858z"/>
	<path d="M6.5,41v15c0,1.009,1.22,2,2.463,2h40.074c1.243,0,2.463-0.991,2.463-2V41H6.5z M26.266,45.25l-4.799,7.205l-0.273,0.219
		h5.072V54h-6.699v-1.326l4.799-7.205l0.287-0.219h-5.086v-1.326h6.699V45.25z M30.271,54h-1.668V43.924h1.668V54z M38.926,48.429
		c-0.173,0.415-0.415,0.764-0.725,1.046c-0.31,0.282-0.684,0.501-1.121,0.656s-0.921,0.232-1.449,0.232h-1.217V54h-1.641V43.924
		h2.898c0.428,0,0.852,0.068,1.271,0.205c0.419,0.137,0.795,0.342,1.128,0.615c0.333,0.273,0.602,0.604,0.807,0.991
		s0.308,0.822,0.308,1.306C39.186,47.552,39.099,48.014,38.926,48.429z"/>
</g>
<g>
</g>
<g>
</g>
<g>
</g>
<g>
</g>
<g>
</g>
<g>
</g>
<g>
</g>
<g>
</g>
<g>
</g>
<g>
</g>
<g>
</g>
<g>
</g>
<g>
</g>
<g>
</g>
<g>
</g>
</svg>
